<svg width="142" height="41" viewBox="0 0 142 41" fill="none" xmlns="http://www.w3.org/2000/svg">
<circle cx="19.0289" cy="20.6714" r="17.4748" stroke="#6927DA" stroke-width="2.55729"/>
<path d="M25.9606 27.6035C22.4321 31.132 18.4346 33.4355 14.8745 34.3509C11.2823 35.2746 8.38693 34.7429 6.67234 33.0283C4.95776 31.3137 4.42602 28.4184 5.34974 24.8261C6.26518 21.2661 8.56863 17.2686 12.0972 13.74C15.6257 10.2115 19.6232 7.90804 23.1833 6.9926C26.7755 6.06888 29.6709 6.60062 31.3855 8.3152C33.1 10.0298 33.6318 12.9252 32.7081 16.5174C31.7926 20.0775 29.4892 24.0749 25.9606 27.6035Z" stroke="#6927DA" stroke-width="2.55729"/>
<path d="M25.9605 13.7397C29.489 17.2682 31.7925 21.2657 32.7079 24.8258C33.6316 28.418 33.0999 31.3134 31.3853 33.028C29.6707 34.7426 26.7753 35.2743 23.1831 34.3506C19.6231 33.4351 15.6256 31.1317 12.097 27.6031C8.56848 24.0746 6.26503 20.0771 5.34959 16.517C4.42588 12.9248 4.95761 10.0294 6.6722 8.31485C8.38678 6.60027 11.2822 6.06853 14.8744 6.99225C18.4344 7.90769 22.4319 10.2111 25.9605 13.7397Z" stroke="#6927DA" stroke-width="2.55729"/>
<path d="M53.8507 29.1874C57.8656 29.1874 60.5764 27.0905 60.5764 23.7404C60.5764 16.6567 51.1655 19.6743 51.1655 15.9407C51.1655 14.8922 52.1117 14.1762 53.6205 14.1762C55.3339 14.1762 56.408 15.0968 56.5359 16.5033H60.1928C60.0905 13.1021 57.482 10.8772 53.6205 10.8772C49.9892 10.8772 47.4319 12.9742 47.4319 15.9407C47.4319 22.9732 56.7149 20.2881 56.7149 23.7916C56.7149 25.1469 55.5641 25.863 53.8507 25.863C51.9583 25.863 50.7564 24.7122 50.6029 22.8965H46.9204C47.0739 26.7069 49.7846 29.1874 53.8507 29.1874Z" fill="#101828"/>
<path d="M61.4461 34.1997H65.0007V27.8321C65.6912 28.7016 66.9442 29.1874 68.4019 29.1874C72.11 29.1874 74.6161 26.5534 74.6161 22.5385C74.6161 18.5235 72.3145 15.8895 68.7088 15.8895C67.0465 15.8895 65.7679 16.5033 65.0007 17.5006V16.0941H61.4461V34.1997ZM67.9671 26.1187C66.0492 26.1187 64.7961 24.6866 64.7961 22.5385C64.7961 20.3648 66.0492 18.9327 67.9671 18.9327C69.834 18.9327 71.1126 20.3648 71.1126 22.5385C71.1126 24.6866 69.834 26.1187 67.9671 26.1187Z" fill="#101828"/>
<path d="M75.4762 28.9829H79.0308V21.9247C79.0308 20.2625 80.1305 19.0606 81.6904 19.0606C83.1736 19.0606 84.1965 20.1858 84.1965 21.7457V28.9829H87.7512V20.953C87.7512 17.9865 85.8588 15.8895 82.969 15.8895C81.1789 15.8895 79.7724 16.6312 79.0308 17.8842V10.4937H75.4762V28.9829Z" fill="#101828"/>
<path d="M97.695 24.6099C97.4137 25.7095 96.4675 26.2721 95.0355 26.2721C93.2454 26.2721 92.0946 25.1469 91.8388 23.3313H101.096C101.122 23.0499 101.147 22.6664 101.147 22.1805C101.147 19.2396 99.3317 15.8895 94.7797 15.8895C90.4068 15.8895 88.4121 19.2396 88.4121 22.5129C88.4121 25.7607 90.6625 29.1874 95.0355 29.1874C98.2065 29.1874 100.661 27.3973 101.173 24.6099H97.695ZM94.7797 18.498C96.4931 18.498 97.4905 19.6488 97.5927 21.0808H91.89C92.1969 19.2907 93.1686 18.498 94.7797 18.498Z" fill="#101828"/>
<path d="M110.47 19.0606V16.0941H108.636C107.076 16.0941 106.104 16.6312 105.414 18.2422V16.0941H101.833V28.9829H105.414V22.7175C105.414 20.5182 106.206 19.0606 107.971 19.0606H110.47Z" fill="#101828"/>
<path d="M122.745 16.0941H119.165V23.1522C119.165 24.7889 118.065 26.0164 116.505 26.0164C115.047 26.0164 114.025 24.8912 114.025 23.3313V16.0941H110.47V24.124C110.47 27.0649 112.362 29.1874 115.252 29.1874C117.017 29.1874 118.449 28.4203 119.165 27.1928V28.9829H122.745V16.0941Z" fill="#101828"/>
<path d="M124.279 28.9829H127.834V10.4937H124.279V28.9829Z" fill="#101828"/>
<path d="M137.982 24.6099C137.701 25.7095 136.755 26.2721 135.323 26.2721C133.533 26.2721 132.382 25.1469 132.126 23.3313H141.384C141.409 23.0499 141.435 22.6664 141.435 22.1805C141.435 19.2396 139.619 15.8895 135.067 15.8895C130.694 15.8895 128.699 19.2396 128.699 22.5129C128.699 25.7607 130.95 29.1874 135.323 29.1874C138.494 29.1874 140.949 27.3973 141.46 24.6099H137.982ZM135.067 18.498C136.78 18.498 137.778 19.6488 137.88 21.0808H132.177C132.484 19.2907 133.456 18.498 135.067 18.498Z" fill="#101828"/>
</svg>
