<svg width="156" height="41" viewBox="0 0 156 41" fill="none" xmlns="http://www.w3.org/2000/svg">
<g clip-path="url(#clip0_398_658)">
<path d="M24.1031 3.51339L20.5052 2.54932L17.4731 13.865L14.7358 3.64913L11.1378 4.6132L14.0953 15.6507L6.72875 8.2842L4.09485 10.9181L12.1751 18.9984L2.11245 16.3021L1.14838 19.9L12.143 22.846C12.0172 22.3031 11.9506 21.7374 11.9506 21.1561C11.9506 17.0417 15.2859 13.7063 19.4004 13.7063C23.5148 13.7063 26.8502 17.0417 26.8502 21.1561C26.8502 21.7336 26.7844 22.2959 26.6601 22.8356L36.6522 25.5129L37.6162 21.915L26.5778 18.9573L36.6411 16.2608L35.677 12.6629L24.6391 15.6205L32.0056 8.25395L29.3717 5.62006L21.4036 13.5882L24.1031 3.51339Z" fill="#FF4405"/>
<path d="M26.6495 22.8775C26.3411 24.1816 25.6898 25.3532 24.7962 26.2919L32.0351 33.5308L34.669 30.8969L26.6495 22.8775Z" fill="#FF4405"/>
<path d="M24.7232 26.3676C23.8188 27.2913 22.6759 27.9806 21.3943 28.3358L24.0284 38.1663L27.6263 37.2021L24.7232 26.3676Z" fill="#FF4405"/>
<path d="M21.2599 28.3717C20.6653 28.5246 20.042 28.6058 19.3997 28.6058C18.7116 28.6058 18.0453 28.5125 17.4127 28.3379L14.7762 38.1773L18.3741 39.1414L21.2599 28.3717Z" fill="#FF4405"/>
<path d="M17.2855 28.3016C16.0234 27.9288 14.9009 27.2307 14.015 26.3043L6.75831 33.561L9.3922 36.1949L17.2855 28.3016Z" fill="#FF4405"/>
<path d="M13.9552 26.2402C13.0845 25.308 12.4502 24.1521 12.1483 22.868L2.12359 25.5542L3.08766 29.1521L13.9552 26.2402Z" fill="#FF4405"/>
</g>
<path d="M59.2663 11.0044V23.9699L50.9552 11.0044H47.6307V28.9054H50.9552V16.0423L59.2663 28.9054H62.5908V11.0044H59.2663Z" fill="#101828"/>
<path d="M64.0888 14.3544H67.5156V11.0044H64.0888V14.3544ZM64.14 28.9054V16.119H67.4645V28.9054H64.14Z" fill="#101828"/>
<path d="M81.7683 22.5122C81.7683 18.0881 78.6228 15.9911 75.2984 15.9655C71.9483 15.94 68.854 18.0881 68.854 22.5122C68.854 26.9363 71.9483 29.0844 75.2984 29.0589C78.3415 29.0333 80.4385 27.6268 81.4103 25.2996L78.8274 24.2256C78.0347 25.8111 76.7816 26.3737 75.2984 26.3993C74.0197 26.4249 72.5621 25.8111 72.2552 23.5351H81.6916C81.7427 23.2027 81.7683 22.8702 81.7683 22.5122ZM75.2984 18.5995C76.577 18.6251 77.8812 19.3156 78.2904 21.1568H72.3063C72.7411 19.29 74.0453 18.574 75.2984 18.5995Z" fill="#101828"/>
<path d="M89.4514 18.4973V15.9655H87.3544V12.5388L84.0299 13.5617V15.9655H81.9329V18.4973H84.0299V25.1206C84.0299 27.6268 84.2345 28.9054 88.1216 28.9054H89.0166V25.9901H88.1216C87.5078 25.9901 87.3544 25.8878 87.3544 25.1206V18.4973H89.4514Z" fill="#101828"/>
<path d="M94.3913 26.118L101.449 18.9064V16.119H90.8623V18.9064H97.7158L90.6577 26.118V28.9054H101.526V26.118H94.3913Z" fill="#101828"/>
<path d="M102.718 25.2996L106.068 24.7882C106.298 26.0668 107.807 26.5527 108.728 26.5527C109.674 26.5527 111.311 26.3481 111.311 24.8138C111.311 21.8217 103.102 25.5554 103.102 19.827C103.102 16.1445 107.372 15.94 108.728 15.94C110.006 15.94 113.714 16.1445 114.482 19.111L111.311 19.7759C111.029 18.4205 109.597 18.1648 108.83 18.1648C108.063 18.1648 106.426 18.3438 106.426 19.827C106.426 22.7935 114.635 19.0087 114.635 24.8138C114.635 28.7264 110.134 29.0589 108.728 29.0589C107.449 29.0589 103.383 28.7264 102.718 25.2996Z" fill="#101828"/>
<path d="M118.954 22.5122C118.954 25.6321 120.616 26.5783 122.355 26.5527C123.915 26.5271 124.989 25.8878 125.628 24.0977L128.365 25.4275C127.367 28.0359 124.938 29.0333 122.355 29.0589C119.005 29.0844 115.629 26.9363 115.629 22.5122C115.629 18.0881 119.005 15.94 122.355 15.9655C124.938 15.9911 127.367 16.9885 128.365 19.5969L125.628 20.9267C124.989 19.1366 123.915 18.4973 122.355 18.4717C120.616 18.4461 118.954 19.3923 118.954 22.5122Z" fill="#101828"/>
<path d="M137.289 15.9144C135.576 15.9144 134.016 16.8094 133.019 18.7274V11.0044H129.694V28.9054H133.019V24.379C133.019 18.5228 135.448 18.0369 136.343 18.0369C137.775 18.0369 137.98 19.5202 137.98 21.6939V28.9054H141.304V21.6939C141.304 18.9831 140.87 15.9144 137.289 15.9144Z" fill="#101828"/>
<path d="M155.34 22.5122C155.34 18.0881 152.195 15.9911 148.87 15.9655C145.52 15.94 142.426 18.0881 142.426 22.5122C142.426 26.9363 145.52 29.0844 148.87 29.0589C151.914 29.0333 154.011 27.6268 154.982 25.2996L152.399 24.2256C151.607 25.8111 150.354 26.3737 148.87 26.3993C147.592 26.4249 146.134 25.8111 145.827 23.5351H155.264C155.315 23.2027 155.34 22.8702 155.34 22.5122ZM148.87 18.5995C150.149 18.6251 151.453 19.3156 151.862 21.1568H145.878C146.313 19.29 147.617 18.574 148.87 18.5995Z" fill="#101828"/>
<defs>
<clipPath id="clip0_398_658">
<rect width="37.5069" height="37.5069" fill="white" transform="translate(0.857849 1.70508)"/>
</clipPath>
</defs>
</svg>
