<svg width="170" height="41" viewBox="0 0 170 41" fill="none" xmlns="http://www.w3.org/2000/svg">
<path d="M31.368 9.51587C30.9995 9.14743 30.6311 8.77899 30.2627 8.41056C29.1574 7.23156 27.9784 6.05256 26.5046 5.31568C24.8098 4.43143 22.9676 4.65249 21.1254 4.65249C18.3253 4.65249 11.325 4.65249 7.19849 4.65249L9.99861 8.41056C15.083 8.41056 23.0413 8.41056 26.7257 8.41056C28.2731 8.41056 29.5995 8.70531 30.8522 9.51587C31.0732 9.58956 31.2943 9.58956 31.368 9.51587Z" fill="#66C61C"/>
<path d="M34.4628 15.5583C34.0944 15.1899 33.726 14.8215 33.3575 14.453C32.2522 13.274 31.0732 12.095 29.5995 11.3582C27.9047 10.4739 26.0625 10.695 24.2203 10.695C21.7886 10.695 15.9673 10.695 11.8408 10.695L14.6409 14.453C19.6517 14.453 26.5046 14.453 29.8942 14.453C31.4417 14.453 32.768 14.7478 34.0207 15.5583C34.1681 15.632 34.3155 15.632 34.4628 15.5583Z" fill="#4CA30D"/>
<path d="M37.9261 21.4529C37.5577 21.0844 37.1893 20.716 36.8208 20.3476C35.7155 19.1686 34.5365 17.9896 33.0628 17.2527C31.368 16.3684 29.5258 16.5895 27.6836 16.5895C25.3993 16.5895 20.3885 16.5895 16.3357 16.5895L19.1358 20.3476C23.9992 20.3476 30.189 20.3476 33.2838 20.3476C34.8313 20.3476 36.1576 20.6423 37.4103 21.4529C37.6314 21.5266 37.7788 21.6003 37.9261 21.4529Z" fill="#3B7C0F"/>
<path d="M6.90375 31.401C7.27218 31.7694 7.64062 32.1378 8.00906 32.5063C9.11437 33.6853 10.2934 34.8643 11.7671 35.6011C13.4619 36.4854 15.3041 36.2643 17.1463 36.2643H31.0732L28.2731 32.5063C23.1887 32.5063 15.2304 32.5063 11.5461 32.5063C9.99862 32.5063 8.67225 32.2115 7.41956 31.401C7.1985 31.3273 7.05112 31.3273 6.90375 31.401Z" fill="#66C61C"/>
<path d="M3.80884 25.359C4.17728 25.7274 4.54571 26.0959 4.91415 26.4643C6.01946 27.6433 7.19846 28.8223 8.6722 29.5592C10.367 30.4434 12.2092 30.2224 14.0514 30.2224H26.4309L23.6308 26.4643C18.62 26.4643 11.7671 26.4643 8.37746 26.4643C6.83002 26.4643 5.50364 26.1695 4.25096 25.359C4.10358 25.2853 3.95621 25.2853 3.80884 25.359Z" fill="#4CA30D"/>
<path d="M0.419189 19.3897C0.787627 19.7582 1.15606 20.1266 1.5245 20.4951C2.62981 21.6741 3.80882 22.8531 5.28257 23.5899C6.97738 24.4742 8.81956 24.2531 10.6617 24.2531H22.0096L19.2095 20.4951C14.3461 20.4951 8.15638 20.4951 5.0615 20.4951C3.51407 20.4951 2.18769 20.2003 0.935 19.3897C0.713937 19.3161 0.566564 19.3161 0.419189 19.3897Z" fill="#3B7C0F"/>
<path d="M46.3925 11.9409V28.9827H50.1397V21.9416H57.2763V19.0297H50.1397V15.0915H58.3742V11.9409H46.3925Z" fill="#101828"/>
<path d="M67.7728 21.4881H62.2593C62.2752 21.2495 62.3229 20.979 62.4025 20.6766C62.498 20.3743 62.6491 20.0879 62.856 19.8174C63.0788 19.5469 63.3652 19.3241 63.7152 19.1491C64.0812 18.9581 64.5347 18.8627 65.0757 18.8627C65.9032 18.8627 66.5158 19.0854 66.9136 19.531C67.3273 19.9765 67.6137 20.6289 67.7728 21.4881ZM62.2593 23.6363H71.1621C71.2257 22.6815 71.1462 21.7666 70.9234 20.8914C70.7006 20.0163 70.3347 19.2366 69.8255 18.5524C69.3322 17.8681 68.6957 17.3271 67.916 16.9293C67.1363 16.5156 66.2214 16.3088 65.1712 16.3088C64.2324 16.3088 63.3731 16.4758 62.5935 16.81C61.8297 17.1442 61.1693 17.6056 60.6124 18.1943C60.0555 18.7672 59.6259 19.4514 59.3235 20.247C59.0212 21.0426 58.87 21.9018 58.87 22.8247C58.87 23.7795 59.0132 24.6546 59.2997 25.4502C59.602 26.2458 60.0237 26.93 60.5647 27.5029C61.1057 28.0757 61.766 28.5213 62.5457 28.8395C63.3254 29.1418 64.2006 29.293 65.1712 29.293C66.5715 29.293 67.7649 28.9747 68.7514 28.3383C69.7379 27.7018 70.4699 26.6436 70.9473 25.1638H67.9638C67.8524 25.5457 67.55 25.9117 67.0568 26.2617C66.5635 26.5959 65.9748 26.763 65.2905 26.763C64.3358 26.763 63.6039 26.5163 63.0947 26.0231C62.5855 25.5298 62.307 24.7342 62.2593 23.6363Z" fill="#101828"/>
<path d="M72.313 20.4379C72.3607 19.6423 72.5596 18.982 72.9097 18.4569C73.2597 17.9318 73.7053 17.5101 74.2463 17.1919C74.7873 16.8736 75.3919 16.6509 76.0602 16.5236C76.7445 16.3804 77.4287 16.3088 78.1129 16.3088C78.7335 16.3088 79.362 16.3565 79.9985 16.452C80.635 16.5315 81.2157 16.6986 81.7408 16.9532C82.2659 17.2078 82.6956 17.5658 83.0297 18.0273C83.3639 18.4728 83.5309 19.0695 83.5309 19.8174V26.2379C83.5309 26.7948 83.5628 27.3279 83.6264 27.837C83.6901 28.3462 83.8014 28.7281 83.9606 28.9827H80.5236C80.4599 28.7918 80.4042 28.6008 80.3565 28.4099C80.3247 28.203 80.3008 27.9962 80.2849 27.7893C79.7439 28.3462 79.1074 28.7361 78.3754 28.9588C77.6435 29.1816 76.8956 29.293 76.1319 29.293C75.5431 29.293 74.9941 29.2214 74.485 29.0782C73.9758 28.935 73.5302 28.7122 73.1483 28.4099C72.7665 28.1075 72.4641 27.7257 72.2414 27.2642C72.0345 26.8028 71.9311 26.2538 71.9311 25.6173C71.9311 24.9172 72.0504 24.3443 72.2891 23.8988C72.5437 23.4374 72.8619 23.0714 73.2438 22.8009C73.6416 22.5304 74.0872 22.3315 74.5804 22.2042C75.0896 22.061 75.5988 21.9496 76.108 21.87C76.6172 21.7905 77.1184 21.7268 77.6117 21.6791C78.1049 21.6313 78.5425 21.5597 78.9244 21.4643C79.3063 21.3688 79.6086 21.2335 79.8314 21.0585C80.0542 20.8676 80.1576 20.5971 80.1417 20.247C80.1417 19.881 80.078 19.5946 79.9507 19.3877C79.8394 19.165 79.6802 18.9979 79.4734 18.8865C79.2824 18.7592 79.0517 18.6797 78.7812 18.6478C78.5266 18.6001 78.2482 18.5762 77.9458 18.5762C77.2775 18.5762 76.7524 18.7194 76.3705 19.0059C75.9886 19.2923 75.7659 19.7696 75.7022 20.4379H72.313ZM80.1417 22.9441C79.9985 23.0714 79.8155 23.1748 79.5927 23.2544C79.3859 23.318 79.1551 23.3737 78.9005 23.4214C78.6619 23.4692 78.4073 23.509 78.1368 23.5408C77.8663 23.5726 77.5958 23.6124 77.3253 23.6601C77.0707 23.7079 76.8161 23.7715 76.5615 23.8511C76.3228 23.9306 76.108 24.042 75.917 24.1852C75.742 24.3125 75.5988 24.4796 75.4874 24.6865C75.376 24.8933 75.3203 25.1559 75.3203 25.4741C75.3203 25.7764 75.376 26.031 75.4874 26.2379C75.5988 26.4447 75.75 26.6118 75.9409 26.7391C76.1319 26.8505 76.3546 26.9301 76.6092 26.9778C76.8638 27.0255 77.1264 27.0494 77.3969 27.0494C78.0652 27.0494 78.5823 26.938 78.9483 26.7152C79.3143 26.4925 79.5848 26.2299 79.7598 25.9276C79.9348 25.6094 80.0383 25.2911 80.0701 24.9729C80.1178 24.6546 80.1417 24.4 80.1417 24.2091V22.9441Z" fill="#101828"/>
<path d="M89.7419 16.6429V12.9434H86.3526V16.6429H84.2999V18.9104H86.3526V26.1901C86.3526 26.8107 86.456 27.3119 86.6629 27.6938C86.8697 28.0757 87.1482 28.3701 87.4983 28.5769C87.8642 28.7838 88.278 28.9191 88.7394 28.9827C89.2168 29.0623 89.718 29.102 90.2431 29.102C90.5772 29.102 90.9193 29.0941 91.2694 29.0782C91.6195 29.0623 91.9377 29.0304 92.2241 28.9827V26.3572C92.065 26.389 91.8979 26.4129 91.7229 26.4288C91.5479 26.4447 91.3649 26.4527 91.1739 26.4527C90.6011 26.4527 90.2192 26.3572 90.0283 26.1663C89.8373 25.9753 89.7419 25.5934 89.7419 25.0206V18.9104H92.2241V16.6429H89.7419Z" fill="#101828"/>
<path d="M93.1207 11.9409V28.9827H96.5099V22.5145C96.5099 21.2574 96.7168 20.3584 97.1305 19.8174C97.5442 19.2605 98.2125 18.982 99.1354 18.982C99.9469 18.982 100.512 19.2366 100.83 19.7458C101.148 20.239 101.307 20.9949 101.307 22.0132V28.9827H104.697V21.3927C104.697 20.6289 104.625 19.9367 104.482 19.3161C104.355 18.6797 104.124 18.1466 103.79 17.717C103.456 17.2714 102.994 16.9293 102.405 16.6907C101.833 16.4361 101.093 16.3088 100.186 16.3088C99.5491 16.3088 98.8967 16.4758 98.2284 16.81C97.5601 17.1282 97.0112 17.6454 96.5815 18.3614H96.5099V11.9409H93.1207Z" fill="#101828"/>
<path d="M114.859 21.4881H109.346C109.361 21.2495 109.409 20.979 109.489 20.6766C109.584 20.3743 109.735 20.0879 109.942 19.8174C110.165 19.5469 110.451 19.3241 110.801 19.1491C111.167 18.9581 111.621 18.8627 112.162 18.8627C112.989 18.8627 113.602 19.0854 114 19.531C114.414 19.9765 114.7 20.6289 114.859 21.4881ZM109.346 23.6363H118.248C118.312 22.6815 118.232 21.7666 118.01 20.8914C117.787 20.0163 117.421 19.2366 116.912 18.5524C116.418 17.8681 115.782 17.3271 115.002 16.9293C114.223 16.5156 113.308 16.3088 112.257 16.3088C111.319 16.3088 110.459 16.4758 109.68 16.81C108.916 17.1442 108.256 17.6056 107.699 18.1943C107.142 18.7672 106.712 19.4514 106.41 20.247C106.107 21.0426 105.956 21.9018 105.956 22.8247C105.956 23.7795 106.099 24.6546 106.386 25.4502C106.688 26.2458 107.11 26.93 107.651 27.5029C108.192 28.0757 108.852 28.5213 109.632 28.8395C110.412 29.1418 111.287 29.293 112.257 29.293C113.658 29.293 114.851 28.9747 115.838 28.3383C116.824 27.7018 117.556 26.6436 118.034 25.1638H115.05C114.939 25.5457 114.636 25.9117 114.143 26.2617C113.65 26.5959 113.061 26.763 112.377 26.763C111.422 26.763 110.69 26.5163 110.181 26.0231C109.672 25.5298 109.393 24.7342 109.346 23.6363Z" fill="#101828"/>
<path d="M119.542 16.6429V28.9827H122.932V23.4214C122.932 22.8645 122.987 22.3474 123.099 21.87C123.21 21.3927 123.393 20.979 123.648 20.6289C123.918 20.2629 124.268 19.9765 124.698 19.7696C125.128 19.5628 125.653 19.4594 126.273 19.4594C126.48 19.4594 126.695 19.4753 126.918 19.5071C127.14 19.523 127.331 19.5469 127.49 19.5787V16.4281C127.22 16.3486 126.973 16.3088 126.751 16.3088C126.321 16.3088 125.907 16.3724 125.509 16.4997C125.112 16.627 124.738 16.81 124.388 17.0487C124.038 17.2714 123.727 17.5499 123.457 17.8841C123.186 18.2023 122.971 18.5524 122.812 18.9343H122.765V16.6429H119.542Z" fill="#101828"/>
<path d="M132.209 25.8321V15.0915H134.882C135.805 15.0915 136.576 15.2268 137.197 15.4973C137.833 15.7518 138.343 16.1258 138.724 16.6191C139.106 17.1123 139.377 17.709 139.536 18.4092C139.711 19.0934 139.799 19.8651 139.799 20.7244C139.799 21.6632 139.679 22.4588 139.441 23.1112C139.202 23.7636 138.884 24.2966 138.486 24.7103C138.088 25.1081 137.635 25.3945 137.125 25.5696C136.616 25.7446 136.091 25.8321 135.55 25.8321H132.209ZM128.461 11.9409V28.9827H135.813C137.117 28.9827 138.247 28.7679 139.202 28.3383C140.172 27.8927 140.976 27.2881 141.613 26.5243C142.265 25.7605 142.75 24.8535 143.068 23.8033C143.387 22.7531 143.546 21.6075 143.546 20.3663C143.546 18.9502 143.347 17.717 142.949 16.6668C142.567 15.6166 142.026 14.7414 141.326 14.0413C140.642 13.3412 139.822 12.8161 138.868 12.466C137.929 12.116 136.911 11.9409 135.813 11.9409H128.461Z" fill="#101828"/>
<path d="M153.384 21.4881H147.871C147.887 21.2495 147.935 20.979 148.014 20.6766C148.11 20.3743 148.261 20.0879 148.468 19.8174C148.69 19.5469 148.977 19.3241 149.327 19.1491C149.693 18.9581 150.146 18.8627 150.687 18.8627C151.515 18.8627 152.127 19.0854 152.525 19.531C152.939 19.9765 153.225 20.6289 153.384 21.4881ZM147.871 23.6363H156.774C156.837 22.6815 156.758 21.7666 156.535 20.8914C156.312 20.0163 155.946 19.2366 155.437 18.5524C154.944 17.8681 154.307 17.3271 153.528 16.9293C152.748 16.5156 151.833 16.3088 150.783 16.3088C149.844 16.3088 148.985 16.4758 148.205 16.81C147.441 17.1442 146.781 17.6056 146.224 18.1943C145.667 18.7672 145.238 19.4514 144.935 20.247C144.633 21.0426 144.482 21.9018 144.482 22.8247C144.482 23.7795 144.625 24.6546 144.911 25.4502C145.214 26.2458 145.635 26.93 146.176 27.5029C146.717 28.0757 147.378 28.5213 148.157 28.8395C148.937 29.1418 149.812 29.293 150.783 29.293C152.183 29.293 153.377 28.9747 154.363 28.3383C155.35 27.7018 156.082 26.6436 156.559 25.1638H153.575C153.464 25.5457 153.162 25.9117 152.668 26.2617C152.175 26.5959 151.586 26.763 150.902 26.763C149.948 26.763 149.216 26.5163 148.706 26.0231C148.197 25.5298 147.919 24.7342 147.871 23.6363Z" fill="#101828"/>
<path d="M164.894 28.9827L169.071 16.6429H165.706L163.104 25.0683H163.056L160.455 16.6429H156.898L161.123 28.9827H164.894Z" fill="#101828"/>
</svg>
