<svg width="144" height="41" viewBox="0 0 144 41" fill="none" xmlns="http://www.w3.org/2000/svg">
<path fill-rule="evenodd" clip-rule="evenodd" d="M17.8369 2.93897C17.4064 2.85042 16.9624 2.85042 16.5319 2.93897C16.0342 3.04132 15.5894 3.29045 15.2358 3.48851L15.1394 3.54235L3.15471 10.2005C3.12158 10.2189 3.08744 10.2378 3.05245 10.257C2.67812 10.4632 2.20745 10.7224 1.84601 11.1147C1.53351 11.4538 1.29702 11.8557 1.15236 12.2935C0.98503 12.8 0.986988 13.3373 0.988545 13.7647C0.988691 13.8046 0.988833 13.8436 0.988833 13.8815V27.0276C0.988833 27.0655 0.988691 27.1045 0.988545 27.1444C0.986988 27.5718 0.98503 28.1091 1.15236 28.6156C1.29703 29.0534 1.53352 29.4553 1.84601 29.7944C2.20746 30.1866 2.67812 30.4459 3.05245 30.6521C3.08744 30.6713 3.12158 30.6901 3.15471 30.7085L15.1394 37.3667L15.2358 37.4206C15.5895 37.6186 16.0342 37.8678 16.5319 37.9701C16.9624 38.0587 17.4064 38.0587 17.8369 37.9701C18.3346 37.8678 18.7794 37.6186 19.133 37.4206L19.2294 37.3667L31.2141 30.7085C31.2288 30.7004 31.2436 30.6922 31.2586 30.6839C31.2776 30.6734 31.2968 30.6628 31.3164 30.6521C31.6907 30.4459 32.1614 30.1866 32.5228 29.7944C32.8353 29.4553 33.0718 29.0534 33.2165 28.6156C33.3838 28.1091 33.3818 27.5718 33.3803 27.1444C33.3801 27.1045 33.38 27.0655 33.38 27.0276V13.8815C33.38 13.8436 33.3801 13.8046 33.3803 13.7647C33.3818 13.3373 33.3838 12.8 33.2165 12.2935C33.0718 11.8557 32.8353 11.4538 32.5228 11.1147C32.1614 10.7224 31.6907 10.4632 31.3164 10.257L31.315 10.2563C31.2805 10.2373 31.2468 10.2187 31.2141 10.2005L19.2294 3.54235L19.133 3.4885C18.7794 3.29044 18.3346 3.04131 17.8369 2.93897ZM16.7125 6.37385C16.9579 6.2375 17.0832 6.1686 17.1767 6.12353L17.1844 6.11982L17.1922 6.12353C17.2856 6.1686 17.4109 6.2375 17.6563 6.37385L28.4255 12.3567L17.1844 18.6018L5.94328 12.3567L16.7125 6.37385ZM4.22795 15.1092L15.5648 21.4074L15.5648 33.8976L4.72777 27.8771C4.46871 27.7331 4.33645 27.6589 4.24366 27.5998L4.23582 27.5947L4.23524 27.5855C4.22862 27.4756 4.22795 27.3239 4.22795 27.0276V15.1092Z" fill="#101828"/>
<path d="M48.12 25.8672H53.2755V28.9052H44.1843V12.7483H48.12V25.8672Z" fill="#101828"/>
<path d="M56.9019 14.7276C56.2114 14.7276 55.6437 14.5281 55.1988 14.1292C54.7691 13.7149 54.5543 13.2086 54.5543 12.6102C54.5543 11.9964 54.7691 11.4901 55.1988 11.0911C55.6437 10.6769 56.2114 10.4697 56.9019 10.4697C57.577 10.4697 58.1294 10.6769 58.559 11.0911C59.004 11.4901 59.2265 11.9964 59.2265 12.6102C59.2265 13.2086 59.004 13.7149 58.559 14.1292C58.1294 14.5281 57.577 14.7276 56.9019 14.7276ZM58.8582 16.0625V28.9052H54.9226V16.0625H58.8582Z" fill="#101828"/>
<path d="M66.3595 15.8784C67.2648 15.8784 68.055 16.0625 68.7301 16.4308C69.4206 16.799 69.95 17.2823 70.3182 17.8808V16.0625H74.2539V28.8822C74.2539 30.0637 74.0161 31.1301 73.5404 32.0814C73.0801 33.048 72.3666 33.8152 71.3999 34.3829C70.4486 34.9507 69.2595 35.2345 67.8325 35.2345C65.9299 35.2345 64.3879 34.7819 63.2064 33.8766C62.0249 32.9867 61.3498 31.7745 61.181 30.2401H65.0706C65.1934 30.7311 65.4849 31.1147 65.9452 31.3909C66.4056 31.6825 66.9733 31.8282 67.6484 31.8282C68.4616 31.8282 69.1061 31.5904 69.5817 31.1147C70.0727 30.6544 70.3182 29.9102 70.3182 28.8822V27.064C69.9346 27.6624 69.4053 28.1534 68.7301 28.537C68.055 28.9052 67.2648 29.0894 66.3595 29.0894C65.3008 29.0894 64.3418 28.8208 63.4826 28.2838C62.6233 27.7314 61.9405 26.9566 61.4342 25.9592C60.9432 24.9465 60.6977 23.7804 60.6977 22.4609C60.6977 21.1413 60.9432 19.9828 61.4342 18.9855C61.9405 17.9882 62.6233 17.221 63.4826 16.6839C64.3418 16.1469 65.3008 15.8784 66.3595 15.8784ZM70.3182 22.4839C70.3182 21.5019 70.042 20.727 69.4896 20.1593C68.9526 19.5916 68.2928 19.3077 67.5103 19.3077C66.7278 19.3077 66.0603 19.5916 65.5079 20.1593C64.9709 20.7117 64.7024 21.4789 64.7024 22.4609C64.7024 23.4429 64.9709 24.2254 65.5079 24.8085C66.0603 25.3762 66.7278 25.66 67.5103 25.66C68.2928 25.66 68.9526 25.3762 69.4896 24.8085C70.042 24.2407 70.3182 23.4659 70.3182 22.4839Z" fill="#101828"/>
<path d="M84.7654 15.9244C86.2384 15.9244 87.4198 16.4154 88.3098 17.3974C89.1997 18.3641 89.6447 19.699 89.6447 21.4021V28.9052H85.732V21.9315C85.732 21.0723 85.5095 20.4048 85.0646 19.9291C84.6196 19.4535 84.0212 19.2157 83.2693 19.2157C82.5175 19.2157 81.9191 19.4535 81.4741 19.9291C81.0292 20.4048 80.8067 21.0723 80.8067 21.9315V28.9052H76.871V11.8737H80.8067V17.7887C81.2056 17.221 81.7503 16.7683 82.4408 16.4308C83.1313 16.0932 83.9061 15.9244 84.7654 15.9244Z" fill="#101828"/>
<path d="M99.3073 25.568V28.9052H97.3049C95.8779 28.9052 94.7655 28.56 93.9676 27.8695C93.1698 27.1637 92.7708 26.0206 92.7708 24.4402V19.3307H91.2058V16.0625H92.7708V12.9324H96.7065V16.0625H99.2843V19.3307H96.7065V24.4862C96.7065 24.8698 96.7986 25.146 96.9827 25.3148C97.1668 25.4836 97.4737 25.568 97.9033 25.568H99.3073Z" fill="#101828"/>
<path d="M105.205 17.8808C105.573 17.2823 106.103 16.799 106.793 16.4308C107.484 16.0625 108.274 15.8784 109.164 15.8784C110.222 15.8784 111.181 16.1469 112.041 16.6839C112.9 17.221 113.575 17.9882 114.066 18.9855C114.572 19.9828 114.826 21.1413 114.826 22.4609C114.826 23.7804 114.572 24.9465 114.066 25.9592C113.575 26.9566 112.9 27.7314 112.041 28.2838C111.181 28.8208 110.222 29.0894 109.164 29.0894C108.258 29.0894 107.468 28.9129 106.793 28.56C106.118 28.1917 105.589 27.7084 105.205 27.11V28.9052H101.269V11.8737H105.205V17.8808ZM110.821 22.4609C110.821 21.4789 110.545 20.7117 109.992 20.1593C109.455 19.5916 108.788 19.3077 107.99 19.3077C107.207 19.3077 106.54 19.5916 105.988 20.1593C105.451 20.727 105.182 21.5019 105.182 22.4839C105.182 23.4659 105.451 24.2407 105.988 24.8085C106.54 25.3762 107.207 25.66 107.99 25.66C108.772 25.66 109.44 25.3762 109.992 24.8085C110.545 24.2254 110.821 23.4429 110.821 22.4609Z" fill="#101828"/>
<path d="M122.506 29.0894C121.248 29.0894 120.112 28.8208 119.1 28.2838C118.102 27.7468 117.312 26.9796 116.729 25.9822C116.161 24.9849 115.878 23.8188 115.878 22.4839C115.878 21.1643 116.169 20.0059 116.752 19.0085C117.335 17.9958 118.133 17.221 119.146 16.6839C120.159 16.1469 121.294 15.8784 122.552 15.8784C123.81 15.8784 124.946 16.1469 125.958 16.6839C126.971 17.221 127.769 17.9958 128.352 19.0085C128.935 20.0059 129.227 21.1643 129.227 22.4839C129.227 23.8034 128.927 24.9696 128.329 25.9822C127.746 26.9796 126.94 27.7468 125.912 28.2838C124.9 28.8208 123.764 29.0894 122.506 29.0894ZM122.506 25.683C123.258 25.683 123.895 25.4069 124.416 24.8545C124.953 24.3021 125.222 23.5119 125.222 22.4839C125.222 21.4558 124.961 20.6656 124.439 20.1133C123.933 19.5609 123.304 19.2847 122.552 19.2847C121.785 19.2847 121.148 19.5609 120.642 20.1133C120.135 20.6503 119.882 21.4405 119.882 22.4839C119.882 23.5119 120.128 24.3021 120.619 24.8545C121.125 25.4069 121.754 25.683 122.506 25.683Z" fill="#101828"/>
<path d="M138.68 28.9052L136.217 25.3378L134.146 28.9052H129.888L134.123 22.3458L129.773 16.0625H134.192L136.654 19.6069L138.726 16.0625H142.984L138.68 22.5299L143.099 28.9052H138.68Z" fill="#101828"/>
</svg>
