<svg width="169" height="41" viewBox="0 0 169 41" fill="none" xmlns="http://www.w3.org/2000/svg">
<path d="M26.7925 1.70508H12.4224L0.854004 13.2735V27.6436L12.4224 39.212H26.7925L38.3609 27.6436V13.2735L26.7925 1.70508ZM14.4107 27.8244L6.99973 20.4133L14.4107 13.0023C17.2124 10.2006 21.8217 10.2006 24.6235 13.0023L32.0345 20.4133L24.6235 27.8244C21.8217 30.6261 17.3028 30.6261 14.4107 27.8244Z" fill="#444CE7"/>
<path d="M54.8469 29.1874C57.1485 29.1874 59.0409 28.0111 59.6291 26.2466V28.9829H63.0303V22.0782C63.0303 20.5182 61.8028 19.1884 60.1405 19.1884H55.2817V22.0782H58.734C59.1688 22.0782 59.4501 22.3595 59.4501 22.7942C59.4501 24.4565 57.2508 26.0676 55.026 26.0676C52.0595 26.0676 49.7068 23.7404 49.7068 20.0323C49.7068 16.3243 52.0595 14.1762 55.1027 14.1762C57.4042 14.1762 58.9898 15.4292 59.2711 17.3472H63.0814C62.8513 13.5113 59.6291 10.8772 55.1282 10.8772C50.3973 10.8772 46.0499 13.9204 46.0499 20.0323C46.0499 26.1443 50.2694 29.1874 54.8469 29.1874Z" fill="#101828"/>
<path d="M64.4903 28.9829H68.045V10.4937H64.4903V28.9829Z" fill="#101828"/>
<path d="M75.7126 29.1874C79.6764 29.1874 82.515 26.3744 82.515 22.5385C82.515 18.7026 79.6764 15.8895 75.7126 15.8895C71.7488 15.8895 68.9102 18.7026 68.9102 22.5385C68.9102 26.3744 71.7488 29.1874 75.7126 29.1874ZM75.7126 26.1187C73.7947 26.1187 72.4904 24.661 72.4904 22.5385C72.4904 20.3904 73.7947 18.9327 75.7126 18.9327C77.6306 18.9327 78.9348 20.3904 78.9348 22.5385C78.9348 24.661 77.6306 26.1187 75.7126 26.1187Z" fill="#101828"/>
<path d="M90.469 29.1874C94.2794 29.1874 96.5554 26.5534 96.5554 22.5385C96.5554 18.5235 94.2794 15.8895 90.5201 15.8895C88.909 15.8895 87.656 16.5033 86.9399 17.4495V10.4937H83.3853V28.9829H86.9399V27.5764C87.656 28.5737 88.9858 29.1874 90.469 29.1874ZM89.9064 26.1187C87.9884 26.1187 86.7354 24.6866 86.7354 22.5385C86.7354 20.3648 87.9884 18.9327 89.9064 18.9327C91.7732 18.9327 93.0519 20.3648 93.0519 22.5385C93.0519 24.6866 91.7732 26.1187 89.9064 26.1187Z" fill="#101828"/>
<path d="M102.506 15.8895C98.9766 15.8895 96.8796 17.9609 96.7262 20.5438H99.8972C99.9484 19.4697 100.741 18.498 102.301 18.498C103.759 18.498 104.603 19.2396 104.603 20.3136C104.603 20.8507 104.27 21.2598 103.631 21.2598H101.457C98.6441 21.2598 96.7517 22.7942 96.7517 25.3259C96.7517 27.5252 98.4651 29.1874 100.971 29.1874C102.736 29.1874 104.168 28.3947 104.603 27.1928V28.9829H108.132V20.6972C108.132 17.7819 105.753 15.8895 102.506 15.8895ZM101.866 26.6046C100.869 26.6046 100.153 26.0164 100.153 25.1725C100.153 24.1752 100.92 23.5103 101.994 23.5103H104.603V23.6893C104.603 25.3259 103.605 26.6046 101.866 26.6046Z" fill="#101828"/>
<path d="M109.498 28.9829H113.052V10.4937H109.498V28.9829Z" fill="#101828"/>
<path d="M114.94 28.9829H122.254C126.039 28.9829 128.648 27.0393 128.648 23.6381C128.648 21.2854 127.267 19.8533 125.63 19.214C126.678 18.6514 127.727 17.3728 127.727 15.685C127.727 12.6929 125.298 11.0818 122.05 11.0818H114.94V28.9829ZM118.725 17.9098V14.125H121.692C123.405 14.125 124.172 14.8155 124.172 16.0174C124.172 17.2193 123.405 17.9098 121.768 17.9098H118.725ZM118.725 25.6584V21.1576H121.922C124.044 21.1576 124.991 21.9759 124.991 23.4335C124.991 24.8912 124.044 25.6584 121.922 25.6584H118.725Z" fill="#101828"/>
<path d="M134.831 15.8895C131.302 15.8895 129.205 17.9609 129.052 20.5438H132.223C132.274 19.4697 133.067 18.498 134.627 18.498C136.084 18.498 136.928 19.2396 136.928 20.3136C136.928 20.8507 136.596 21.2598 135.957 21.2598H133.783C130.97 21.2598 129.077 22.7942 129.077 25.3259C129.077 27.5252 130.791 29.1874 133.297 29.1874C135.062 29.1874 136.494 28.3947 136.928 27.1928V28.9829H140.457V20.6972C140.457 17.7819 138.079 15.8895 134.831 15.8895ZM134.192 26.6046C133.195 26.6046 132.479 26.0164 132.479 25.1725C132.479 24.1752 133.246 23.5103 134.32 23.5103H136.928V23.6893C136.928 25.3259 135.931 26.6046 134.192 26.6046Z" fill="#101828"/>
<path d="M141.619 28.9829H145.199V21.9247C145.199 20.2625 146.299 19.0606 147.859 19.0606C149.342 19.0606 150.339 20.1858 150.339 21.7457V28.9829H153.919V20.953C153.919 17.9865 152.027 15.8895 149.112 15.8895C147.347 15.8895 145.915 16.6312 145.199 17.8842V16.0941H141.619V28.9829Z" fill="#101828"/>
<path d="M164.123 28.9829H168.419L162.87 21.1576L168.01 16.0941H163.509L159.034 20.4927V10.4937H155.454V28.9829H159.034V24.9423L160.466 23.5358L164.123 28.9829Z" fill="#101828"/>
</svg>
