<svg width="145" height="41" viewBox="0 0 145 41" fill="none" xmlns="http://www.w3.org/2000/svg">
<path fill-rule="evenodd" clip-rule="evenodd" d="M18.7535 39.212C29.1107 39.212 37.5069 30.8158 37.5069 20.4585C37.5069 10.1013 29.1107 1.70508 18.7535 1.70508C8.39619 1.70508 0 10.1013 0 20.4585C0 30.8158 8.39619 39.212 18.7535 39.212ZM24.6039 10.4412C24.8887 9.42968 23.907 8.83152 23.0105 9.47023L10.4955 18.3859C9.52321 19.0786 9.67614 20.4585 10.7252 20.4585H14.0208V20.433H20.4436L15.2102 22.2796L12.903 30.4759C12.6183 31.4874 13.5998 32.0856 14.4964 31.4468L27.0115 22.5313C27.9837 21.8386 27.8307 20.4585 26.7817 20.4585H21.7841L24.6039 10.4412Z" fill="#155EEF"/>
<path d="M47.2076 28.9051V25.9386H49.5603V13.9705H47.2076V11.004H56.4138C57.5049 11.004 58.4511 11.1916 59.2524 11.5666C60.0708 11.9246 60.7016 12.4446 61.1448 13.1266C61.6051 13.7915 61.8353 14.5927 61.8353 15.5304V15.7862C61.8353 16.6045 61.6818 17.2779 61.375 17.8064C61.0681 18.3179 60.7015 18.7185 60.2753 19.0083C59.8662 19.2811 59.4741 19.4772 59.099 19.5965V20.0568C59.4741 20.1591 59.8832 20.3552 60.3265 20.645C60.7697 20.9178 61.1448 21.3184 61.4517 21.8469C61.7756 22.3754 61.9376 23.0659 61.9376 23.9183V24.1741C61.9376 25.1629 61.7074 26.0153 61.2471 26.7314C60.7868 27.4303 60.1475 27.9674 59.3291 28.3424C58.5279 28.7175 57.5902 28.9051 56.5161 28.9051H47.2076ZM52.9359 25.8363H56.107C56.84 25.8363 57.4282 25.6573 57.8715 25.2993C58.3318 24.9413 58.5619 24.4298 58.5619 23.7649V23.5092C58.5619 22.8443 58.3403 22.3328 57.8971 21.9748C57.4538 21.6168 56.8571 21.4378 56.107 21.4378H52.9359V25.8363ZM52.9359 18.369H56.0558C56.7548 18.369 57.3259 18.19 57.7692 17.832C58.2295 17.474 58.4597 16.9796 58.4597 16.3488V16.093C58.4597 15.4452 58.238 14.9508 57.7948 14.6098C57.3515 14.2518 56.7718 14.0728 56.0558 14.0728H52.9359V18.369Z" fill="#101828"/>
<path d="M69.5599 29.2631C68.2983 29.2631 67.1646 29.0073 66.1587 28.4959C65.1528 27.9844 64.3601 27.2428 63.7804 26.271C63.2008 25.2993 62.9109 24.1314 62.9109 22.7676V22.3584C62.9109 20.9945 63.2008 19.8267 63.7804 18.8549C64.3601 17.8831 65.1528 17.1415 66.1587 16.6301C67.1646 16.1186 68.2983 15.8629 69.5599 15.8629C70.8215 15.8629 71.9552 16.1186 72.9611 16.6301C73.967 17.1415 74.7597 17.8831 75.3394 18.8549C75.919 19.8267 76.2088 20.9945 76.2088 22.3584V22.7676C76.2088 24.1314 75.919 25.2993 75.3394 26.271C74.7597 27.2428 73.967 27.9844 72.9611 28.4959C71.9552 29.0073 70.8215 29.2631 69.5599 29.2631ZM69.5599 26.3989C70.5487 26.3989 71.367 26.0835 72.0149 25.4527C72.6627 24.8049 72.9867 23.8842 72.9867 22.6908V22.4351C72.9867 21.2417 72.6627 20.3296 72.0149 19.6988C71.3841 19.051 70.5658 18.727 69.5599 18.727C68.5711 18.727 67.7527 19.051 67.1049 19.6988C66.4571 20.3296 66.1331 21.2417 66.1331 22.4351V22.6908C66.1331 23.8842 66.4571 24.8049 67.1049 25.4527C67.7527 26.0835 68.5711 26.3989 69.5599 26.3989Z" fill="#101828"/>
<path d="M77.9045 28.9051V11.004H81.1266V28.9051H77.9045Z" fill="#101828"/>
<path d="M88.2775 28.9051C87.4421 28.9051 86.7601 28.6493 86.2316 28.1379C85.7202 27.6094 85.4644 26.9104 85.4644 26.0409V18.8805H82.2934V16.2209H85.4644V12.2827H88.6866V16.2209H92.1645V18.8805H88.6866V25.4783C88.6866 25.9897 88.9253 26.2455 89.4027 26.2455H91.8577V28.9051H88.2775Z" fill="#101828"/>
<path d="M99.0706 29.2631C97.4169 29.2631 96.0615 28.9051 95.0045 28.189C93.9475 27.473 93.3082 26.4501 93.0866 25.1203L96.053 24.3531C96.1724 24.9498 96.3684 25.4186 96.6412 25.7596C96.931 26.1006 97.2805 26.3478 97.6897 26.5012C98.1159 26.6376 98.5762 26.7058 99.0706 26.7058C99.8208 26.7058 100.375 26.5779 100.733 26.3222C101.091 26.0494 101.27 25.717 101.27 25.3248C101.27 24.9327 101.099 24.6344 100.758 24.4298C100.417 24.2082 99.8719 24.0292 99.1218 23.8928L98.4057 23.7649C97.5192 23.5944 96.7094 23.3643 95.9763 23.0744C95.2432 22.7676 94.655 22.3499 94.2118 21.8214C93.7685 21.2928 93.5469 20.6109 93.5469 19.7755C93.5469 18.5139 94.0072 17.5507 94.9278 16.8858C95.8484 16.2038 97.0589 15.8629 98.5592 15.8629C99.9742 15.8629 101.151 16.1783 102.088 16.8091C103.026 17.4399 103.64 18.2667 103.929 19.2896L100.937 20.2103C100.801 19.5624 100.52 19.1021 100.094 18.8293C99.6844 18.5565 99.1729 18.4202 98.5592 18.4202C97.9454 18.4202 97.4766 18.531 97.1527 18.7526C96.8287 18.9572 96.6668 19.247 96.6668 19.6221C96.6668 20.0313 96.8373 20.3381 97.1782 20.5427C97.5192 20.7302 97.9795 20.8752 98.5592 20.9774L99.2752 21.1053C100.23 21.2758 101.091 21.506 101.858 21.7958C102.642 22.0686 103.256 22.4692 103.699 22.9977C104.16 23.5092 104.39 24.2082 104.39 25.0947C104.39 26.4245 103.904 27.4559 102.932 28.189C101.977 28.9051 100.69 29.2631 99.0706 29.2631Z" fill="#101828"/>
<path d="M105.935 28.9051V11.004H109.157V17.7808H109.617C109.754 17.5081 109.967 17.2353 110.257 16.9625C110.546 16.6897 110.93 16.4681 111.407 16.2976C111.902 16.1101 112.524 16.0163 113.274 16.0163C114.263 16.0163 115.124 16.2465 115.857 16.7068C116.607 17.15 117.187 17.7723 117.596 18.5736C118.005 19.3578 118.21 20.2785 118.21 21.3355V28.9051H114.988V21.5912C114.988 20.6365 114.749 19.9204 114.272 19.4431C113.811 18.9657 113.146 18.727 112.277 18.727C111.288 18.727 110.521 19.0595 109.975 19.7244C109.43 20.3722 109.157 21.2843 109.157 22.4607V28.9051H105.935Z" fill="#101828"/>
<path d="M120.414 28.9051V16.2209H123.637V28.9051H120.414ZM122.026 14.7377C121.446 14.7377 120.951 14.5501 120.542 14.1751C120.15 13.8 119.954 13.3056 119.954 12.6918C119.954 12.0781 120.15 11.5837 120.542 11.2086C120.951 10.8335 121.446 10.646 122.026 10.646C122.622 10.646 123.117 10.8335 123.509 11.2086C123.901 11.5837 124.097 12.0781 124.097 12.6918C124.097 13.3056 123.901 13.8 123.509 14.1751C123.117 14.5501 122.622 14.7377 122.026 14.7377Z" fill="#101828"/>
<path d="M128.026 28.9051V18.8805H124.803V16.2209H128.026V13.8682C128.026 12.9987 128.281 12.3082 128.793 11.7968C129.321 11.2683 130.003 11.004 130.839 11.004H134.163V13.6636H131.964C131.486 13.6636 131.248 13.9193 131.248 14.4308V16.2209H134.572V18.8805H131.248V28.9051H128.026Z" fill="#101828"/>
<path d="M140.397 28.9051C139.562 28.9051 138.88 28.6493 138.351 28.1379C137.84 27.6094 137.584 26.9104 137.584 26.0409V18.8805H134.413V16.2209H137.584V12.2827H140.806V16.2209H144.284V18.8805H140.806V25.4783C140.806 25.9897 141.045 26.2455 141.522 26.2455H143.977V28.9051H140.397Z" fill="#101828"/>
</svg>
